<?xml version="1.0" encoding="UTF-8"?>
<svg id="Layer_1" data-name="Layer 1" xmlns="http://www.w3.org/2000/svg" viewBox="0 0 4000 4000">
  <defs>
    <style>
      .cls-1 {
        fill: #ff4e7c;
      }

      .cls-2 {
        fill: #fff;
      }

      .cls-3 {
        fill: #ffb686;
      }

      .cls-4 {
        opacity: .5;
      }

      .cls-5 {
        opacity: .6;
      }

      .cls-6 {
        fill: #8c413b;
      }

      .cls-7 {
        opacity: .2;
      }

      .cls-8 {
        fill: #feb354;
      }

      .cls-9 {
        fill: #f94846;
      }

      .cls-10 {
        fill: #38c3e1;
      }

      .cls-11 {
        opacity: .35;
      }

      .cls-12 {
        fill: #50468e;
      }

      .cls-13 {
        opacity: .3;
      }

      .cls-14 {
        fill: #000072;
      }

      .cls-15 {
        fill: #786f82;
      }

      .cls-16 {
        fill: #ffc6a6;
      }

      .cls-17 {
        fill: #ab5054;
      }

      .cls-18 {
        fill: #ff0068;
      }
    </style>
  </defs>
  <path class="cls-16" d="M1549.37,1168.43v248.79c-91.76,125.81-106.8,258.26,12.49,402.33,178.02,167.75,396.17,228.65,641.57,218.92,211.11-.75,358.51-83.88,432.94-261.39,0-169.97-6.93-313.18,28.8-421.42l-106.08-209.87c-195.94,57.03-362.65-32.03-519.61-169.79-185.91,20.22-358.65,66.09-490.11,192.42Z"/>
  <path class="cls-16" d="M1477.05,1453.18c-52.66,5.3-98.16,31.97-111.72,153.94,32.16,77.75,75.73,98.4,123.04,100.34l-11.92-100.34,.61-153.94Z"/>
  <path class="cls-14" d="M1767.05,1645.51c-159.71-23.93-62.59-344.18,36.23-305.34,97.07,43.11,114.91,260.9-36.23,305.34Z"/>
  <path class="cls-14" d="M2296.7,1643.1c-43.83-168.45,11.43-226.32,95.56-251.97,71.16,11.85,86.03,100.04,52.85,253.36-48.91-9.3-98.39-9.56-148.41-1.39Z"/>
  <ellipse class="cls-2" cx="1759.46" cy="1449.54" rx="56.03" ry="37.68" transform="translate(75.42 2986.05) rotate(-81.86)"/>
  <g class="cls-11">
    <ellipse class="cls-2" cx="1810.29" cy="1547.57" rx="38.45" ry="21.41" transform="translate(-212.47 2804.78) rotate(-72.39)"/>
  </g>
  <ellipse class="cls-2" cx="2348.5" cy="1490.99" rx="52.43" ry="35.26" transform="translate(540.04 3604.74) rotate(-81.86)"/>
  <g class="cls-11">
    <ellipse class="cls-2" cx="2396.06" cy="1582.72" rx="35.98" ry="20.03" transform="translate(162.57 3387.61) rotate(-72.39)"/>
  </g>
  <path class="cls-10" d="M1196.96,1921.35l197.79-18.01-6.89,37.5,17.34,11.89,40.05,49.33,106.23-17.62,172.71-36.33,198.43,71.25,86.24,117.38,129-78.82,236.42-26.95,105.22,59.19c109.14,2.24,206.75,66.98,248.71,164.81,59.19,137.99-26.62,261.87-31.19,268.23-6.57,10.71-13.15,21.43-19.72,32.14l-24.85,66.48-204.32-66.48,15.3-32.91v-31.66l-11.48-61.7-17.22-28.7-63.13-6.89-21.31,76.3,32.79,93.97-10.39,48.44,24.21,47.88,1.1,42.19-793.19,54.85c-27.62-11.76-33.01-25.07-10.71-40.31l-.92-44.38c-31.06-45-25.35-87.48,.92-128.56l19.36-210.14c-102.33,3.48-200.28-11.21-292.35-50.27-107.18-50.54-144.94-149.72-115.6-295.92l2.3-28.4-10.86-37.79Z"/>
  <path class="cls-10" d="M1732.54,2642.63c53.83-46.98,64.57-114.4,61.68-188.3l96.42-29.84c78.96,23.75,168.27,19.11,262.86,0l60.84,29.84c1.47,63.93,18.22,118.28,47.7,164.63l-536.7,39.7,7.19-16.02Z"/>
  <polygon class="cls-10" points="1593.19 2672.43 2376.11 2618.96 2389.74 2645.92 2391.5 2698.19 1594.1 2751.84 1580.28 2735.76 1594.1 2716.81 1593.19 2672.43"/>
  <path class="cls-10" d="M2448.13,2555.35l8.99-28.31v-34.44l231.3,48.98-21.43,26.78-14.54,53.47c-72.76-30.2-142.43-55.05-204.32-66.48Z"/>
  <path class="cls-15" d="M2747.2,2325.79c-29.93,1.11-59.25-18.06-87.86-60.47-9.47-30.97-3.83-59.25,7.65-86.47,45.04,39.2,74.32,86.82,80.21,146.94Z"/>
  <path class="cls-15" d="M1225.44,2195.48c39.18-4.07,77.39,.63,113.64,22.96,32.12,27.01,49.75,55.84,42.47,87.81-65.28-19.93-123.23-49.26-156.11-110.77Z"/>
  <path class="cls-10" d="M1201.24,1936.25l6.58,22.89-7.17,21.92c59.1,18.29,132.4,5.34,211.33-20l-16.34-24.82,8.7-32.9-203.09,32.9Z"/>
  <path class="cls-12" d="M1594.1,2751.84l790.03-53.64,67.82,641.16s-67.79,22.89-67.82,23.69c-.57,14.81-164.09,5.7-164.05-1.88l-157.26-392.58-78.06,1.15-127.95,408.07-122.47,15.13c-3.94-26.16-21.13-35.43-39.66-42.98-19.03,3.48-29.9,19.15-39.91,36.1l-22.41-3.08c-31.28-172.74-43.27-382.88-39.03-624.45"/>
  <path class="cls-10" d="M1457.89,1262.83c-304.86-28.1-275.36-192.48-136.68-401.35,211.5-210.73,408.76-223.44,596.98-110.58,261.9,94.58,502.88,205.23,640.91,394.9-118.84,26.79-258.84,1.1-409.61-51.32l-99.29-117.08c-215,7.27-417.4,77.61-592.31,285.43Z"/>
  <path class="cls-10" d="M2749.64,1558.99l-152.85-367.96c55.13-150.25,56.47-341.79,40.57-546.57,111.52,89.03,203.75,187.06,263.3,300.34-6.97,176.85-38.92,329.97-102.05,453.48,15.48,35.63,15.03,67.56-18.37,91.83,12.67,38.8,3.67,62.59-30.61,68.87Z"/>
  <path class="cls-10" d="M2294.1,465.65c17.89-38.08,52-46.81,94.52-40.33,29.55,24.79,38.3,53.35,25.49,85.8l-120.01-45.48Z"/>
  <path class="cls-2" d="M1624.16,680.38c82.02-153.57,354.39-189.43,646.43-213.12,126.28,43.4,257.27,79.17,349.78,177.21l-23.58,546.57c-147.12-192.53-333.01-312.86-546.59-381.59-145.07-75.21-287.87-126.52-426.03-129.06Z"/>
  <path class="cls-17" d="M2683.83,1352.37c-54.73,73.22-54.3,175.37-39.89,284.85-19.98,46.56-23.91,93.18-7.56,139.87,35.37-18.65,52.85-57.78,52.04-117.85,29.19-24.79,48.35-63.98,60.31-113.51l-64.9-193.36Z"/>
  <path class="cls-17" d="M1549.37,1168.43l-12.22,257.95c-35.13,64.01-57.53,124.8-60.71,180.73-19.58-13.87-34.94-33.82-20.08-97.37,14.07-33.58,35.19-58.7,58.16-81.62l-56.63-165.29,91.48-94.4Z"/>
  <polygon class="cls-16" points="1909.29 2014.58 2008.87 2136.75 2126.72 2057.93 1909.29 2014.58"/>
  <path class="cls-16" d="M1177.44,1808.49c-12.97,50.13-2.96,87.24,28.83,112.02l181.6-16.22,57.39-113.43c-30.14-23.47-60.44-35.13-92.12,46.68l-175.7-29.05Z"/>
  <path class="cls-16" d="M1174.94,1734.61c12.43-35,28.7-34.63,46.43-20.66l44.83-7.76c22.05-21.55,40.43-24.31,55.05-7.85,19.7-7.23,38.91-11.3,54.03,10.57,10.63,24.82,.58,37.53-31.9,37.08-14,18.91-33.01,22.06-56.69,10.52-19.78,17.82-38.31,22.07-54.58,1.48-10.42,6.5-21.82,8.17-36.19-4.83l-20.98-18.55Z"/>
  <path class="cls-16" d="M2603.07,1842.51c91.51,29.55,167.55,6.89,218.91-99,12.74-87.87-38.67-113.05-96.95-131.52l-36.61,47.24c-.07,65.12-34.93,125.31-85.35,183.28Z"/>
  <path class="cls-16" d="M2448.13,2555.35c-39.48,39.43-80.21,79.08-40.94,104.74-13.46,74.92-11.71,126.87,43.24,98.44,25.48,25.95,49.12,30.22,70.4,6.5,70.92,45.73,108.87-12.37,125.2-138.51l-197.9-71.17Z"/>
  <path class="cls-2" d="M1914.75,1777.08c72.69-56.72,166.08-85.77,290.41-73.46l-25.25,56.82h-29.83l41.21,57.87c-69.61-27.3-169.07-36.66-276.53-41.23Z"/>
  <path class="cls-8" d="M1064.69,1843.32c20.52-13.98,40.54-153.98,17.97-158.09l-16.02,6.23-16.18,137.88,14.23,13.98Z"/>
  <path class="cls-8" d="M1095.1,1735.33l79.84,3c21.33,23.63,39.06,27.12,53.77,13.72,20.72,18.04,39.97,24.95,54.97,0,22.83,14.65,43.39,16.35,59.71-6.05l161.96,7.16,100.81,110.01-189.32-16.13,28.43-56.18-34.48-16.2-67.4,58.81-258.57-42.61,10.29-55.53Z"/>
  <path class="cls-8" d="M2603.07,1842.51l129.73,4.02c57.27,14.44,105.97,33.69,115.62,74.83,.19,78.67-17.05,142.08-49.72,191.98l-333.04-34.86-91.38-47.5c85.94-45.15,163.77-108.44,237.07-181.87"/>
  <path class="cls-2" d="M1129.93,1739.02l-15.26,60.23,235.32,34.22,48.4-58.81,42.95,16.2-29.36,56.97,47.01,6.55c28.83-30.8,29.93-65.88,29.38-101.22l-144.99-7.16c-21.88,25.71-41.7,25.33-59.71,1.87-18.95,32.4-36.29,33.51-51.56-5.79-15.57,26.89-33.16,22.87-52.19-3.05h-49.99Z"/>
  <polygon class="cls-3" points="1743.33 3393.19 1738.74 3415.94 1852.94 3432.47 1852.94 3379.98 1743.33 3393.19"/>
  <polygon class="cls-3" points="2241.88 3371.01 2256.14 3428.09 2378.49 3415.94 2378.49 3364.36 2241.88 3371.01"/>
  <circle class="cls-6" cx="2263.31" cy="1881.93" r="39.42"/>
  <polygon class="cls-8" points="2150.07 1760.44 2179.91 1760.44 2248.21 1840.91 2230.33 1860.34 2150.07 1760.44"/>
  <polyline class="cls-1" points="2203.69 1706.92 2179.91 1755.76 2208.6 1787.99 2229.27 1706.92 2206.88 1706.92"/>
  <path class="cls-9" d="M1664.51,3426.97c-13.23-41.02-.48-64.92,30.18-77.02,24.48,11.29,37.24,35.06,37.93,71.67l120.32,16.45c20.57,27.52,34.11,68.17,33.6,135.07l-363.93-8.42c22.66-50.93,55.44-74.37,99.81-66.37l42.09-71.38Z"/>
  <path class="cls-9" d="M2222.62,3566.33c-.4-8.8,33.52-138.23,33.52-138.23l122.35-7.5c-5.93-57.39,18.57-69.29,49.68-71.33,27.11,23.08,40.04,48.68,12.31,81.53l47.45,68.39c45.34-1.14,83.77,11,100.14,65.53l-365.44,1.61Z"/>
  <polygon class="cls-2" points="2449.51 3443.82 2384.14 3449.54 2405.34 3475.5 2456.53 3460.46 2449.51 3443.82"/>
  <path class="cls-2" d="M2466.14,3475.5l-38.51,23.69,12.85,22.1c16.1-17.41,31.14-28.51,44.03-27.02l-18.37-18.77Z"/>
  <polygon class="cls-2" points="2222.62 3566.33 2591.25 3566.33 2588.06 3602.83 2222.62 3596.86 2222.62 3566.33"/>
  <polygon class="cls-2" points="1635.48 3476.19 1679.43 3502.92 1666.8 3518.99 1622.42 3498.35 1635.48 3476.19"/>
  <path class="cls-2" d="M1646.12,3461.54c20.33,1.83,39.89,5.6,57.14,15.15l14.05-25.42-55.56-17.01-15.63,29.64"/>
  <polygon class="cls-2" points="1522.61 3564.72 1886.54 3573.13 1876.87 3605.66 1522.61 3596.6 1522.61 3564.72"/>
  <path class="cls-9" d="M2729.29,2106.07c64.35-43.46,83.25-124,63.58-236.01l55.55,51.29c-8.14,64.94-21.85,128.08-55.59,184.72h-63.54Z"/>
  <g class="cls-7">
    <path class="cls-14" d="M1441.34,1261.12c-222.36-34.07-267.67-155.03-88.2-386.32,181.9-178.71,356.26-184.55,525.23-66.54l171.82,169.13c-221.44-1.23-423.46,98.15-608.86,283.72Z"/>
  </g>
  <g class="cls-7">
    <path class="cls-14" d="M2596.79,1191.03c.77,.04,2.06,1.55,4.71,2.89,32.88,16.59,199.46,186.99,197.11,204.37,18.55,29.05,13.9,59.57-18.37,91.83l-18.38,65.47"/>
  </g>
  <g class="cls-7">
    <path class="cls-14" d="M2650.54,1435.01c19.95,19.36,33.76,42.64,36.92,72.72,3.58,49.71-14.19,94.43-36.92,138-14.74,41.02-19.23,82.51-14.16,124.46,35.4-18.09,50.56-53.77,51.08-102.16l59.52-115.43-73.49-193.35"/>
  </g>
  <g class="cls-7">
    <path class="cls-14" d="M1457.89,1262.83l50.58,171.45-58.05,83.53c-6.42,46.2,.22,78.3,19.27,97.04l55.92-169.5,15.06-28.12,8.7-248.79-91.48,94.4Z"/>
  </g>
  <g class="cls-7">
    <path class="cls-14" d="M1457.12,1472.89c-31.83,45.14-58.31,95.47-75.38,154.96,26.98,61.76,64.12,81.7,106.62,79.6l-11.92-100.34-35.1-16.94,15.79-117.28Z"/>
  </g>
  <g class="cls-7">
    <path class="cls-14" d="M2729.29,1623.27c17.3,20.96,27.58,48.81,13.07,101.01-38.92,112.49-84.42,119.33-131.01,108.51l30-62.59c34.51-15.09,48.13-54.48,47.06-110.96l40.88-35.97Z"/>
  </g>
  <g class="cls-7">
    <path class="cls-14" d="M2551.41,1139.8l-384.57,264.98c-181.48,125.05-418.07,136.74-610.99,30.18l-26.39-14.58,12.22-257.95c156.87-127.4,320.72-186.85,490.11-192.42,141.18,155.39,316.22,206.33,519.61,169.79Z"/>
  </g>
  <g class="cls-7">
    <path class="cls-14" d="M1508.46,1738.33c332.38,281.41,687.42,313.97,1058.97,165.02-137.84,117.2-311.83,178.23-545.2,147.02-232.9-56.76-417.2-155.1-529.47-315.05"/>
  </g>
  <g class="cls-7">
    <path class="cls-14" d="M1059.41,1753.16c8.98-21.55,18.26-18.05,27.78,6.41,13.08-51.93,8.92-71.77-4.52-74.33-21.11-.03-26.55,26.54-23.26,67.93Z"/>
  </g>
  <g class="cls-7">
    <polyline class="cls-14" points="1087.19 1759.57 1368.4 1802.69 1343.38 1833.47 1084.81 1790.86 1090.02 1753.16"/>
  </g>
  <g class="cls-7">
    <path class="cls-14" d="M1439.58,1799.25c37.03,2.69,61.49-9.64,65.76-46.09l107.4,110.59-195.9-16.71,22.74-47.79Z"/>
  </g>
  <g class="cls-7">
    <path class="cls-14" d="M2540.28,1921.35c212.59,69.34,310.64,61.87,300.71-18.01l11.12,43.15c-7.46,63.31-24.6,119.41-53.4,166.83l-333.04-34.86-82.58-61.61,157.2-95.51Z"/>
  </g>
  <g class="cls-7">
    <path class="cls-14" d="M1657.23,1950.5c245.79,184.08,506.2,232.46,785.73,103.31l-63.84-26.95c-111.48,22.74-225.59,27.49-344.19,1.61-81.81,10.88-189.11-31.63-298.25-77.97h-79.46Z"/>
  </g>
  <g class="cls-7">
    <polygon class="cls-14" points="1177.44 1837.54 1292.28 1847.65 1299.12 1826.17 1177.44 1808.49 1177.44 1837.54"/>
  </g>
  <g class="cls-7">
    <path class="cls-14" d="M1277.14,1914.18l6.75,74.66c70.92,162.66,187.61,246.64,356.13,241.49l-19.9,103.39c-120.28,7.78-232.71-16.45-337.2-73.07-73.59-40.09-98.44-132.14-77.41-273.11l2.3-28.4,.6-27.48,68.72-17.49Z"/>
  </g>
  <g class="cls-7">
    <path class="cls-14" d="M2391.22,2289.38c29.37-23.71,208.7,177.68,176.21,211.63-5.29,5.53-27.47,71.93-27.47,71.93-85.6,32.46-84.81,108.02-82.84,184.18l-38.19,12.46-10.6-51.24c-8.24-22.88-10.92-42.88,10.6-50.36-13.73-4.01-22.52-16.7-27.71-35.74l63.31-90.67,2.58-48.98-5.17-63.52-5.51-28.7-74.84-6.89,19.62-104.11Z"/>
  </g>
  <g class="cls-7">
    <polygon class="cls-14" points="1592.52 2708.26 2384.14 2652.92 2369.91 2618.96 1593.19 2672.43 1592.52 2708.26"/>
  </g>
  <g class="cls-7">
    <path class="cls-14" d="M1604.82,2821.55c302.17-38.6,583.33-66.81,786.41-56.36l6.78-62.91-793.19,54.85c-2.92,25.45-5.3,50.25,0,66.06"/>
  </g>
  <g class="cls-7">
    <path class="cls-14" d="M1949.18,2935.29c-82.34,240.16-176.84,424.41-326.76,353.93l9.95,93.74,22.41,3.08c14.11-23.18,27.81-40.72,39.91-36.1,20.34,1.97,35.23,11.15,38.17,36.1l134.82-12.26,113.64-395.25-32.14-43.24Z"/>
  </g>
  <g class="cls-7">
    <path class="cls-14" d="M2133.99,2867.57c-52.33,53.15-112.65,69.94-177.16,67.72l34.6,34.44,71.38-1.15,71.17-101.01Z"/>
  </g>
  <g class="cls-7">
    <path class="cls-14" d="M2133.99,2877.52c-9.41,120.9,42.79,278.64,115.17,448.44,27.74,30.14,81.43,33.54,134.98,37.08l-164.05-1.88-157.26-392.58,71.17-91.07Z"/>
  </g>
  <g class="cls-7">
    <path class="cls-14" d="M1664.51,3426.97c2.28-29.71,12.45-45.17,30.18-46.99,19.64,.08,31.36,13.51,37.71,35.95l-67.89,11.03Z"/>
  </g>
  <g class="cls-7">
    <polyline class="cls-14" points="1732.39 3396.23 1732.39 3415.94 1849.06 3423.14 1852.94 3389.45 1743.33 3393.19"/>
  </g>
  <g class="cls-7">
    <polygon class="cls-14" points="2241.88 3371.01 2256.14 3428.09 2378.49 3420.59 2378.97 3371.01 2241.88 3371.01"/>
  </g>
  <g class="cls-7">
    <path class="cls-14" d="M2442.16,3363.04c-18.18,10.36-28.57,26.41-24.64,52.9h-39.03s.48-44.92,.48-44.92c20.96-20.74,42.02-23.21,63.19-7.97Z"/>
  </g>
  <g class="cls-7">
    <path class="cls-14" d="M1669.28,3428.09c54.55,11.61,110.12,22.88,123.38,47.89-.01,39.83-9.87,68.07-37.86,74.96l-223.45,13.77-8.74,31.88,364.04,6.23-29.83-168.57c-74.56-11.56-143.24-18.47-187.54-6.16Z"/>
  </g>
  <g class="cls-7">
    <path class="cls-14" d="M2433.24,3428.09c-49.87,10.38-101.57,18.96-117.88,47.41-16.85,0-17.51,91.9,0,89.21,8.91-1.37,288.46-.92,272.7,8.42v29.69l-356.76-5.83-7.82-56.77c7.09-46.71,18.82-86.08,40.22-110.2l169.54-1.94Z"/>
  </g>
  <g class="cls-7">
    <path class="cls-14" d="M1914.75,1770.2c106.8-26.02,200.93-37.45,265.16-14.44l28.7,32.23,24.47-76.28-43.12-11.85c-108.02-4.91-198.68,20.41-275.2,70.34Z"/>
  </g>
  <g class="cls-5">
    <path class="cls-2" d="M2654.62,670.53c148.64,145.95,251.26,315.22,206.95,558.91l39.09-284.63c-62.81-118.14-147.03-206.5-246.04-274.28Z"/>
  </g>
  <g class="cls-5">
    <path class="cls-2" d="M2030.1,952.64c174.27,118.66,331.89,194.57,445.96,158.67-15.48-46.34-137.33-139.65-242.99-225.8,139.72,87.53,280.43,175.07,326.03,260.29-96.3,17.01-186.39,22.77-264.5,6.82-114.13-39.99-210.29-98.44-264.5-199.98Z"/>
  </g>
  <g class="cls-5">
    <path class="cls-2" d="M2509.35,2106.07c81.61-36,316.92,336.53,211.79,386.52,34.21-69.95,33.42-150.07,7.08-237.62-50.12-91.67-127.52-133.13-218.87-148.91Z"/>
  </g>
  <g class="cls-5">
    <polygon class="cls-2" points="2398 2797.82 2428.17 3349.27 2451.95 3339.35 2398 2797.82"/>
  </g>
  <g class="cls-5">
    <path class="cls-2" d="M1755.19,2636.84c-3.36,9.94,75.25-93.89,89.53-127.41v-26.7c4.51-15.05,13.67-21.61,32.14-11.18,91.11,23.57,176.26,30.37,249.86,4.59l44-4.59c-1.37,58.54,35.92,97.32,67.72,138.89l-16.84-163.76-56.7-16.6c-76.76,14.62-164.08,11.96-260.5-5.6l-98.09,26.1c4.45,70.51-16.28,131.15-51.13,186.26Z"/>
  </g>
  <path class="cls-14" d="M2636.38,1790.86c-1.32,0-2.64-.19-3.94-.57-3.9-1.16-7.09-3.99-8.7-7.72-17.83-41.17-15.88-85.62,5.99-135.77-17.79-101.35-9.18-202.01,26.28-307.43-91.87-204.99-235.44-390.91-627.04-522.61-.57-.19-1.13-.42-1.67-.69-135.47-66.35-240.52-104.79-321.14-117.49-38.66-6.09-79.34-2.77-117.66,9.6-22.52,7.27-42.59,14.38-61.35,21.76-128.42,50.45-228.08,151.06-273.42,276.03-25.26,69.62-25.28,124.48-.06,163.04,29.59,45.25,96.11,72.01,197.78,79.59,133.02-172.09,328.62-266.08,597.67-287.21l2.16,27.47c-263.83,20.73-454.34,113.07-582.4,282.31-2.79,3.69-7.29,5.74-11.87,5.43-116.54-7.52-190.6-37.79-226.39-92.52-30.22-46.21-31.15-109.3-2.78-187.51,48.04-132.4,153.46-238.93,289.25-292.27,19.3-7.58,39.89-14.89,62.96-22.33,42.41-13.69,87.5-17.36,130.41-10.59,83.22,13.11,190.57,52.22,328.16,119.56,513.26,172.89,614.65,448.58,712.71,715.21,3.74,10.16,7.48,20.32,11.24,30.48,.88,2.38,1.09,4.96,.6,7.45-10.01,50.73-29.34,89.27-60.63,120.67,2.26,55.11-17.42,96.76-58.56,123.86-2.27,1.5-4.91,2.27-7.58,2.27Zm36.36-412.7c-26.37,91.49-31.31,179.46-15.16,267.89,.51,2.76,.15,5.62-1.01,8.17-16.86,37.12-21.32,70.1-13.48,100.24,24.12-22.25,34.47-53.27,31.58-94.25-.29-4.11,1.28-8.14,4.27-10.97,28.88-27.34,46.86-61.34,56.41-106.75-3.31-8.95-6.6-17.9-9.89-26.85-17.06-46.38-33.96-92.33-52.72-137.47Z"/>
  <path class="cls-14" d="M2562.4,1159.17c-80.44,20.23-165.98,26.74-247.32,7.74,0,0-11.18-2.37-11.18-2.37l-10.96-3.27c-13.3-3.7-30.82-9.38-43.27-14.75-3.79-1.43-12.36-4.93-15.96-6.31-2.92-1.35-22.16-11.05-25.58-12.71-5.93-2.65-14.28-7.66-19.89-11.16-11.45-6.78-27.73-16.89-38.07-24.98-30.74-21.64-58.89-47.84-84.9-74.8-9.96-11.25-20.12-22.38-29.9-33.75-15.4-19.72-38.97-49.91-55.33-68.51-133.29-155.45-297.64-232.72-490.17-125.87-25.3,13.82-49.68,29.58-72.88,47.05-23.14,17.64-45.52,35.85-73.88,48.56,14.92-27.27,37.38-47.35,61.11-65.41,218.37-170.32,422.9-126.35,598.03,76.35,16.66,18.74,40.15,48.78,55.95,68.76,41.74,48.9,89.55,94.05,145.47,126.35,12.11,7.85,29.65,15.66,42.48,22.33,11.27,4.36,23.32,9.66,34.67,13.72,6.11,1.83,24.5,7.53,30.56,9.37,7.24,1.62,23.96,5.17,31.25,6.79,14.07,2.05,28.17,4.41,42.36,5.34,49.88,3.72,100.71-.48,149.63-10.77,0,0,21.19-4.43,21.19-4.43l6.6,26.75h0Z"/>
  <path class="cls-14" d="M2730.61,1589.83l-4.04-27.25c19.38-2.87,31.35-8.54,37.67-17.85,7.22-10.63,8.09-27.95,2.59-51.48-1.25-5.33,.78-10.9,5.18-14.18,2.64-1.97,5.13-4.05,7.41-6.18,18.29-17.1,21.48-45.37,7.57-67.22-2.57-4.03-2.86-9.1-.78-13.4,59.11-122,91.05-255.35,100.54-419.68,.93-16.12-2.99-31.85-11.33-45.48-121.11-197.91-297.94-338.48-556.5-442.4-8.18-3.29-16.65-5.07-25.18-5.3-137.18-3.65-295.7,23.35-498.97,84.91-65.36,20.54-117.78,61.47-160.11,125.1l-22.93-15.26c45.97-69.08,103.19-113.62,174.93-136.16,206.32-62.47,367.65-89.8,507.82-86.12,11.82,.31,23.5,2.76,34.73,7.27,264.33,106.24,445.37,250.37,569.73,453.58,11.29,18.45,16.59,39.7,15.34,61.45-9.53,165.14-41.37,299.97-100.1,423.55,16.31,31.93,10.16,70.91-15.92,95.28-.9,.84-1.83,1.67-2.77,2.5,5.15,27.57,2.37,48.8-8.44,64.69-10.81,15.9-29.26,25.59-56.42,29.61Z"/>
  <path class="cls-14" d="M2609.81,1204.39l-26.04-9c55.06-159.2,50.21-377.6,39.84-550.1l27.5-1.66c11.18,185.91,15.02,397.91-41.3,560.75Z"/>
  <path class="cls-14" d="M2167.14,2064.02c-57.1,0-118.55-5.4-184.11-16.22-.19-.03-.37-.06-.56-.1-249.87-51.88-435.85-172.88-497.5-323.69-40.17-98.26-25.66-204.39,41.95-307.14l8.86-253.5,27.53,.96-9,257.39c-.09,2.56-.89,5.05-2.32,7.18-64.14,95.81-78.49,194.25-41.52,284.68,58.16,142.26,236.58,257.04,477.33,307.08,328.87,54.19,536.92-27.32,636.01-249.2l25.16,11.24c-52.85,118.33-137.66,200.35-252.06,243.76-65.92,25.02-142.8,37.55-229.77,37.55Z"/>
  <path class="cls-14" d="M1473.46,1628.3c-27.53-6.1-44.79-28.4-47.33-61.18-3.68-47.39,23.72-112.03,69.72-139.04-28.69-57.24-46.06-112.26-51.66-163.75l27.39-2.98c5.63,51.79,24.18,107.81,55.12,166.48,1.83,3.47,2.09,7.55,.73,11.23-1.37,3.67-4.24,6.59-7.89,8.02-41.04,16.06-69.15,76.57-65.94,117.91,1.61,20.72,10.3,32.97,25.82,36.42l-5.96,26.89Z"/>
  <path class="cls-14" d="M1473.66,1721.25c-36.37,0-68.27-16.55-91.37-47.86-34.11-46.25-40.47-116.24-15.13-166.41,22.08-43.72,64.2-67.8,118.59-67.8v27.55c-55.71,0-81.87,28.64-94,52.67-20.91,41.41-15.57,99.29,12.71,137.64,21.04,28.53,51.58,41.04,86.01,35.21l4.6,27.16c-7.28,1.23-14.43,1.84-21.41,1.84Z"/>
  <path class="cls-14" d="M2427.61,513.88l-27-5.49c7.8-38.36-.18-64.71-21.89-72.31-22.14-7.75-56.51,4.81-72.35,35.84l-24.54-12.53c20.64-40.41,68.19-62.53,105.98-49.31,13.34,4.67,55.63,25.94,39.8,103.8Z"/>
  <path class="cls-14" d="M2279.77,1310.28c18.59,9.16,34.04,21.73,51.88,31.64,21.7,12.21,45.89,19.88,70.49,22.29,45.99,4.92,88.74-12.11,130.17-32.5-15.33,18.59-35.92,32.85-58.76,42-45.95,18.75-101.44,15.92-144.15-10.23-21.2-12.46-40.9-29.58-49.63-53.2h0Z"/>
  <path class="cls-14" d="M1702.39,1229.44c15.33-45.72,54.54-86.98,104.31-93.25,38.78-3.52,77,18.92,98.21,50,6.42,10.23,11.5,21.24,13.28,34.17-31.41-11.42-52.93-35.51-83.25-46.24-53.4-20-93.01,25.12-132.55,55.32h0Z"/>
  <path class="cls-14" d="M1942.29,1285.79c21.02-10.34,42.11-22.87,48.21-47.06,7.01,29.9-20.65,49.46-48.21,47.06h0Z"/>
  <path class="cls-14" d="M2268.29,1647.37c15.81-9.98,33.39-12.56,51.33-14.8,17.59-2.25,35.37-3.68,53.25-3.59,17.86,.07,35.84,1.5,53.51,4.91,17.58,4.03,36.64,6.15,49.68,20.37-5,.66-9.4,.2-13.76-.26-46.36-10.32-93.85-9.78-141.09-5.97-17.62,1.39-35.37,3.82-52.91-.65h0Z"/>
  <path class="cls-14" d="M2208.6,1662.87c24.28-7.95,56.17-6.49,73.59,14.79,6.05,7.27,8.71,17.17,5.61,25.96-5.53-7.45-9.19-13.48-14.13-18.55-17.54-16.26-42.89-15.44-65.07-22.2h0Z"/>
  <path class="cls-14" d="M1768.02,1652.45c-3.1,0-6.2-.22-9.31-.66-55.73-7.97-90.85-85.88-78.3-173.67,12.55-87.79,68.12-152.73,123.84-144.76,55.73,7.97,90.85,85.88,78.3,173.67-11.86,82.9-62.06,145.42-114.53,145.42Zm26.66-306c-45.61,0-89.75,57.57-100.63,133.61h0c-11.48,80.27,18.4,151.19,66.61,158.08,2.54,.36,5.09,.54,7.62,.54,45.61,0,89.75-57.57,100.63-133.61,11.48-80.27-18.4-151.19-66.61-158.08-2.54-.36-5.09-.54-7.62-.54Z"/>
  <path class="cls-14" d="M2451.79,1646.2l-13.34-3.43c26.31-102.35,27.22-174.11,2.72-213.3-10.39-16.61-25.62-27.12-45.28-31.25-33.91-2.58-56.93,18.41-70.33,36.47-37.91,51.12-47.77,141.56-22.45,205.88l-12.82,5.04c-26.89-68.31-16.26-164.56,24.2-219.13,22.27-30.03,50.95-44.54,82.91-41.97,.28,.02,.55,.06,.83,.12,23.7,4.85,42.08,17.47,54.61,37.52,26.58,42.51,26.22,117.89-1.06,224.03Z"/>
  <path class="cls-14" d="M2193.68,1828.74c-1.52,0-3.03-.38-4.4-1.12-52.09-28.4-153.61-31.75-251.78-34.99-11.93-.39-23.86-.79-35.72-1.22-4.6-.17-8.37-3.72-8.8-8.31-.44-4.58,2.59-8.78,7.08-9.82l1.06-.24c111.02-84.21,226.15-87.53,324.21-79.62,5.83,.48,10.95,3.59,14.07,8.52,2.88,4.55,3.63,9.97,2.12,15.07-2.54,22.91-10.78,48.7-25.17,78.78l-16.57-7.92c13.68-28.6,21.39-52.72,23.58-73.76,.08-.78,.26-1.55,.54-2.28-88.98-7.28-192.36-4.97-292.59,62.23l6.81,.23c100.32,3.31,204.06,6.73,259.97,37.22l-2.84,5.21,8.14,4.27c-.3,.56-.6,1.11-.91,1.66l-.65,1.19c-1.14,2.18-3.11,3.81-5.47,4.53-.87,.26-1.77,.39-2.67,.39Z"/>
  <path class="cls-14" d="M2179.33,1766.57l-45.91-3.86,6.27-2.99-9.76,14.35c-2.46,3.74-8.09,4.03-10.94,.6,0,0-16.64-19.51-16.64-19.51l6.16,2.36c-16.62,3.53-33.59,4.7-50.54,5.42-5.67,.19-11.43-.27-17.52-3.22,5.1-4.45,10.53-6.42,16.05-7.73,16.74-3.83,33.63-7.23,50.8-8.15,2.19-.11,4.21,.85,5.54,2.39l16.64,19.51-10.94,.6,9.76-14.35c1.45-2.13,3.88-3.19,6.27-2.99l45.91,3.86-1.15,13.73h0Z"/>
  <rect class="cls-14" x="2156.45" y="1726.58" width="66.99" height="13.77" transform="translate(-348.99 2897.31) rotate(-62.99)"/>
  <rect class="cls-14" x="2208.8" y="1742.52" width="13.78" height="117.25" transform="translate(-639.72 1809.09) rotate(-39.27)"/>
  <rect class="cls-14" x="2184.39" y="1745" width="13.77" height="133.45" transform="translate(-651.69 1771.73) rotate(-38.78)"/>
  <path class="cls-14" d="M2263.31,1930.54c-26.8,0-48.61-21.8-48.61-48.6s21.8-48.6,48.61-48.6,48.6,21.8,48.6,48.6-21.8,48.6-48.6,48.6Zm0-78.84c-16.67,0-30.24,13.57-30.24,30.24s13.57,30.24,30.24,30.24,30.24-13.57,30.24-30.24-13.57-30.24-30.24-30.24Z"/>
  <path class="cls-14" d="M2661.06,1867.65c-20.76,0-42.61-2.53-65.19-7.7l6.13-26.86c76.22,17.41,142.06,1.94,180.62-42.46,26.53-30.55,35.52-71.63,22.89-104.66-12.14-31.77-41.91-52.18-83.84-57.47l3.45-27.33c51.73,6.53,90.41,33.85,106.12,74.96,16.46,43.06,5.79,93.85-27.83,132.56-33.57,38.65-83.63,58.95-142.36,58.95Z"/>
  <path class="cls-14" d="M2008.87,2150.53c-.44,0-.88-.02-1.32-.06-3.82-.37-7.31-2.31-9.63-5.36-37.24-48.85-75.1-88.6-119.11-125.1l17.58-21.21c42.16,34.96,78.82,72.74,114.53,118.1,36.19-29.7,80.99-55.12,139.61-79.33l10.52,25.46c-61.88,25.56-107.32,52.26-143.01,84.02-2.53,2.26-5.8,3.49-9.16,3.49Z"/>
  <path class="cls-14" d="M1949.18,2161.24c-22.89-14.75-40.83-32.91-59.18-50.89-18.58-17.71-37.69-34.79-56.85-51.77-37.8-35.22-81.33-64.43-115.07-103.96,69.15,19.29,205.69,139.36,231.11,206.62h0Z"/>
  <path class="cls-14" d="M2309.48,2050.47c-32.4,19.85-65.84,37.88-99.57,55.33-16.85,8.77-33.88,17.22-50.94,25.61-16.92,8.65-34.44,16.22-54.82,18.72,12.72-16.11,28.3-27.15,44.47-37.12,16.03-10.22,32.1-20.38,48.35-30.22,32.44-19.76,65.22-38.97,99.01-56.34,0,0,13.5,24.01,13.5,24.01h0Z"/>
  <path class="cls-14" d="M1464.72,2020.34l-16.73-21.88c29.07-22.22,68.68-44.22,120.98-22.45,37.34-38.89,103.37-39.75,163.93-35.12l-2.1,27.47c-57.31-4.39-119.59-3.91-147.1,32.79-4.01,5.36-11.3,7.05-17.27,4.02-34.9-17.75-64.37-13.35-101.71,15.18Z"/>
  <path class="cls-14" d="M1636.96,2220.93c-2.27,54.83-11.58,108.1-17.63,162.21-6.38,53.26-10.21,106.87-11.46,160.45,.04,2.87-.85,5.67-2.31,7.92-11.72,18.01-22.69,38.25-24.89,59.3-2.16,20.43,6.34,38.07,22.25,51.04,0,0-10.33-3.11-10.33-3.11,257.54-28.28,516.35-47.94,775.82-50.59l-12.28,7.8c17.9-35.35,8.92-75-11.6-107.77-.87-1.43-1.45-3.01-1.76-4.56,0-.04-7.65-39.76-7.65-39.79-.34-1.98-.27-3.99,.16-5.92,4.71-29.46,13.77-57.82,23.46-85.97,9.81-28.31,20.23-56.33,32.77-83.66-4.63,59.42-11.55,119.29-29.48,176.26,0,0,.15-5.91,.15-5.91,0,.03,7.65,39.76,7.65,39.79,0,0-1.76-4.56-1.76-4.56,11.61,19.2,21.06,40.77,24.23,64.4,3.34,23.49-.91,48.42-11.34,69.64-2.34,4.87-7.22,7.73-12.28,7.8-258.2,2.63-516.17,22.22-773.05,50.42-3.85,.42-7.5-.78-10.28-3.06-49.93-40.75-34.81-100.23-2.7-146.83,0-.01-2.32,7.95-2.31,7.89-3.18-55.3,2.54-110.53,11.86-164.94,9.8-54.18,22.36-107.66,44.76-158.25h0Z"/>
  <path class="cls-14" d="M1593.34,2772.29c-3.42,0-6.73-1.27-9.28-3.6-11.33-10.33-17.23-21.53-17.54-33.29-.25-9.56,3.08-18.81,10.14-28.07-7.52-16.55-5.45-30.46-1.95-39.77l25.78,9.72c-1.8,4.77-3.29,12.48,4.41,24.39,3.51,5.42,2.78,12.56-1.77,17.16-4.22,4.27-9.22,10.49-9.08,15.85,.07,2.81,1.54,5.94,4.37,9.33,212.52-25.8,516.22-42.28,787.97-54.99,.17-.77,.34-1.51,.5-2.24,3-13.38,2.99-15.62-3.6-20.51-3.15-2.33-5.16-5.9-5.52-9.8-1.98-21.37-5.66-21.02-8.05-20.84l-2.38-27.44c29.09-2.62,35.39,24.98,37.27,40.04,15.8,14.95,12,31.9,9.17,44.56-.85,3.81-1.66,7.42-2.1,11.11-.8,6.68-6.31,11.81-13.04,12.12-276.89,12.89-588.9,29.64-803.62,56.16-.56,.07-1.13,.1-1.69,.1Z"/>
  <path class="cls-14" d="M1720.66,2670.87l-17.14-21.57c71.99-57.21,97.64-118.43,80.71-192.67-1.56-6.86,2.29-13.79,8.95-16.08l93.36-32.14c3.33-1.14,6.96-.97,10.16,.47,66.41,30.03,150.12,32.27,255.88,6.81,2.23-.54,4.56-.51,6.78,.09l65.81,17.6c7.33,1.96,11.7,9.49,9.76,16.83-15.86,60.02-2.8,113.21,39.95,162.61l-20.83,18.03c-45.3-52.35-61.71-110.92-48.88-174.29l-49.56-13.26c-107.76,25.44-194.62,23.12-265.2-7.08l-76.87,26.46c13.87,79.37-16.61,147.59-92.88,208.2Z"/>
  <path class="cls-14" d="M1271.93,1865.47c13.21-28.63,44.34-49.18,76.71-45.88,0,0-10.82,5.57-10.82,5.57l8.95-14.26c16.43-23.97,41.11-57.08,74.73-49.32,12.81,2.95,23.66,12.37,32.2,21.51,3.66,3.78,4.09,9.5,1.37,13.73l-39.03,64.28,.74-1.43-20.66,48.21-21.1-9.04,20.66-48.21c.21-.48,.48-1,.74-1.44l39.03-64.28,1.37,13.73c-6.67-7.11-14.05-13.35-20.77-14.75-23.27-5.23-47.55,35.81-58.49,53.03-2.41,3.83-6.62,5.82-10.84,5.57-27.23-2.46-51.19,10.43-74.78,23h0Z"/>
  <path class="cls-14" d="M1208.8,2004.36c-3.82,0-7.4-1.9-9.53-5.08-8.54-12.73-11.53-22.89-9.41-31.96,.78-3.33,2.23-6.35,4.33-9.05-3.81-7.69-6.58-16.74-4-25.24,1.4-4.6,4.95-10.92,13.96-14.92,.99-.44,2.04-.73,3.11-.88l185.96-25.25c4.19-.57,8.35,1.21,10.84,4.64,6.25,8.62,11.55,21.93,4.72,38.83l11.23,10.98c2.5,2.44,3.75,5.89,3.4,9.37-.35,3.47-2.27,6.6-5.21,8.49-38.8,24.98-107.22,38.09-209.16,40.09-.08,0-.15,0-.22,0Zm3.23-64.42c.08,.01-.45,3.73,6.47,14.67,1.67,2.65,2.19,5.86,1.44,8.9-.75,3.04-2.72,5.64-5.43,7.2-1.76,1.01-2.26,1.69-2.3,1.85-.03,.12-.5,2.45,2.92,8.72,83.24-2.05,141.73-11.62,177.85-29.16l-6.25-6.11c-3.82-3.74-4.56-9.61-1.78-14.17,4.26-7,4.7-12.02,3.5-16.03l-176.14,23.92c-.18,.12-.26,.21-.29,.23Z"/>
  <path class="cls-14" d="M1444.88,2026.29c-.23-21.52-14.48-39.15-46.21-57.17l11.33-19.97c24.63,13.98,57.41,37.16,57.83,76.89l-22.95,.24Z"/>
  <path class="cls-14" d="M1607.07,2345.2c-187.45,0-313.85-39.55-375.77-117.6-46.07-58.06-57.39-137.93-33.66-237.39l22.33,5.33c-22.01,92.25-12.15,165.53,29.31,217.79,57.34,72.28,177.69,108.9,357.7,108.91,2.15,0,4.27,0,6.43-.01l.11,22.96c-2.16,0-4.31,.01-6.45,.01Z"/>
  <path class="cls-14" d="M1539.39,2207.54c19.95,15.65,30.35,36.92,43,57.75,11.89,20.52,23.24,41.33,32.62,63.14,0,0-20.38,10.57-20.38,10.57-12.42-20.24-22.89-41.5-32.81-63.04-9.74-22.34-21.13-43.09-22.43-68.42h0Z"/>
  <path class="cls-14" d="M1212.14,1771.36c-1.69,0-3.39-.18-5.09-.56-15.8-3.5-28.66-14.61-38.23-33.02-.79-1.51-.98-3.26-.55-4.91,3.93-15.08,10.36-24.84,19.66-29.85,8.93-4.81,20.27-4.93,33.72-.37,7.15,2.43,12.62,8.18,14.62,15.39,4.95,17.82,3.16,32.18-5.46,43.92-4.39,5.98-11.37,9.39-18.67,9.39Zm-29.83-37.58c7.4,13.21,16.72,21.14,27.72,23.57,3.63,.8,7.53-.62,9.67-3.54,6.04-8.22,7.09-18.42,3.29-32.08-.79-2.86-2.9-5.06-5.77-6.03-9.68-3.28-17.34-3.47-22.76-.55-5.29,2.85-9.28,8.96-12.15,18.63Z"/>
  <path class="cls-14" d="M1260.48,1780.69c-16.78,0-29.53-8.58-37.95-25.58l12.34-6.12c6.8,13.72,16.01,19.18,29.86,17.69,3.4-.37,6.3-2.4,7.57-5.32,8.4-19.22,5.13-35.01-10.28-49.63-7.03-3.97-17.04-1.9-31.39,6.46l-6.93-11.9c12.34-7.18,30.55-15.62,46.13-5.94,.38,.23,.73,.51,1.06,.81,20.17,18.77,24.89,40.89,14.04,65.73-3.24,7.43-10.42,12.6-18.72,13.5-1.96,.21-3.86,.31-5.72,.31Z"/>
  <path class="cls-14" d="M1311.57,1775.05c-10.79,0-22.19-5.91-33.97-17.6l9.71-9.78c10.05,9.98,18.93,14.5,26.41,13.45,6.86-.96,13.5-6.78,19.78-17.29-5.44-23.21-13.74-39.48-24.71-48.42-11.14-3.42-23.5,1.73-37.77,15.69l-9.63-9.85c18.58-18.17,36.42-24.4,53.04-18.48,.68,.24,1.32,.59,1.89,1.03,14.65,11.26,24.87,30.78,31.23,59.65,.36,1.65,.11,3.37-.71,4.84-8.87,15.9-19.36,24.8-31.18,26.47-1.35,.19-2.7,.29-4.06,.29Z"/>
  <path class="cls-14" d="M1358.55,1756.04c-6.17,0-12.99-1.58-20.44-4.76l5.4-12.67c17.57,7.49,24.14,1.35,26.31-.67,6.56-6.12,6.71-17.3,.33-24.43-8.97-10.02-17.08-15.12-24.08-15.16h-.08c-5.37,0-10.73,3-16.36,9.17l-10.17-9.3c8.33-9.1,17.29-13.54,26.68-13.64,11.22,.06,22.43,6.52,34.27,19.75,11.45,12.79,10.92,32.39-1.2,43.69-5.73,5.35-12.65,8.03-20.66,8.03Z"/>
  <path class="cls-14" d="M1579.02,1871.53c-36.36,0-91.38-5.58-169.25-17.06l2.01-13.63c98.78,14.57,162.07,19.65,193.46,15.51l1.8,13.66c-7.71,1.02-17.01,1.53-28.03,1.53Z"/>
  <path class="cls-14" d="M1320.12,1840.26c-75.34-12.49-159.35-27.71-240.6-42.43l-1.11-.2,2.46-13.55,1.11,.2c81.2,14.71,165.16,29.92,240.39,42.39l-2.25,13.59Z"/>
  <polygon class="cls-14" points="1343.38 1752.89 1339.95 1752.74 1340.56 1738.98 1343.64 1739.12 1343.38 1752.89"/>
  <polygon class="cls-14" points="1513.99 1760.04 1368.16 1753.94 1368.45 1740.17 1514.56 1746.28 1513.99 1760.04"/>
  <rect class="cls-14" x="1126.84" y="1693.43" width="13.78" height="87.5" transform="translate(-649.5 2797.01) rotate(-87.59)"/>
  <path class="cls-14" d="M1062.32,1850.4c-.96,0-1.93-.06-2.91-.19-9.91-1.29-16.91-10.1-15.94-20.04l12.66-130.39c.63-6.55,3.99-12.61,9.19-16.64,5.21-4.02,11.94-5.74,18.42-4.71,11.7,1.86,19.62,12.52,18.04,24.25l-17.25,128.28c-1.51,11.23-11.17,19.43-22.22,19.43Zm17.63-158.49c-2.23,0-4.39,.73-6.2,2.13-2.25,1.74-3.64,4.25-3.91,7.07l-12.66,130.39h0c-.24,2.5,1.52,4.72,4.02,5.05,4.76,.61,9.06-2.71,9.69-7.42l17.25-128.28c.57-4.27-2.31-8.14-6.56-8.81-.54-.09-1.09-.13-1.63-.13Z"/>
  <path class="cls-14" d="M1214.16,1933.61c-43.91-22.03-46.68-75.83-43.6-125.55l13.75,.85c-2.95,47.5-.62,94,36.03,112.38l-6.18,12.31Z"/>
  <path class="cls-14" d="M2688.42,2552.24c-1.11,0-2.23-.16-3.33-.49-102.24-30.94-176.08-46.72-219.48-46.9-3.23-.01-6.31-1.39-8.47-3.79-30.88-34.22-25.19-61.28-14.98-77.96l19.58,11.98c-5.48,8.95-10.25,23.41,9.23,46.9,45.45,1.26,115.51,16.25,213.72,45.68,28.03-32.99,46.03-78.87,53.52-136.51,12.46-151.93-80.07-250.47-275-292.91-2.53-.55-4.81-1.94-6.45-3.95-23.48-28.74-57.76-47.33-104.81-56.85l4.55-22.5c50.8,10.27,88.61,30.48,115.44,61.72,108.95,24.29,188.33,66.48,235.97,125.43,41.52,51.37,59.4,115.71,53.16,191.23-.01,.18-.03,.35-.06,.53-8.51,65.75-30.1,117.8-64.17,154.72-2.21,2.39-5.28,3.7-8.44,3.7Z"/>
  <path class="cls-14" d="M2479.5,2426.78c-18.41,18.28-43.73-5.48-54.76-20.75,0,0,19.99-11.3,19.99-11.3,3.29,8.5,6.85,16.93,11.95,23.7,5.45,7.39,13.26,11.13,22.82,8.34h0Z"/>
  <path class="cls-14" d="M2463.43,2393.49c-8.93,3.06-28.49,10.3-36.75,13.98-20.89,2.73-42.5,.91-63.31-2.93-9.86-1.85-12.37-15.55-3.98-20.82,0,0,16.43-10.88,16.43-10.88,17.18-11.14,30.27-24.66,43.12-40.95,2.46,15.35-4.93,30.27-14,42.17-9.18,11.8-20.67,21.75-33.47,29.2l-6.04-21.25c20.2-3.4,41.04-5.21,61.25-2.5,8.21,3.67,27.95,10.98,36.75,13.99h0Z"/>
  <path class="cls-14" d="M2652.45,2633.3c-1.58,0-3.18-.33-4.69-1-133.69-59.85-181.19-68.75-197.51-65.67-5.18,.98-10.36-1.7-12.56-6.48-4.22-9.19-5.53-22.73,9.79-37.24-2.35-11.23-2.91-24.22-1.82-40.93l22.91,1.49c-1.15,17.65-.29,30.06,2.79,40.24,1.39,4.59-.22,9.56-4.04,12.46-3.68,2.8-5.97,5.13-7.37,7.05,24.25,1.01,73.5,13.16,189.9,64.87,12.52-14.26,9.96-25.13,6.04-33.2-1.89-3.9-1.43-8.52,1.2-11.97l22.19-29.13,18.26,13.92-18.22,23.91c5.27,15.56,4.68,36.68-19.09,58.63-2.16,2-4.96,3.05-7.79,3.05Z"/>
  <path class="cls-14" d="M2425.94,2639.52c-9.61,32.21-17.82,66.18-10.26,98.99,2.61,7.99,5.61,18.36,14.39,17.49,3.43-.39,8.82-3.11,13.48-6.66,4.59-3.42,10.9-2.9,14.88,.96,16.75,17.2,37.11,21.24,55.37,5.65,3.59-2.79,8.32-3.1,12.13-1.2,35.9,18.5,67.21,14.97,85.25-23.85,16.23-34.26,20.52-74.65,23.39-112.68,0,0,22.91,1.49,22.91,1.49-4.52,83.22-29.83,210.9-141.77,155.6,0,0,12.19-1.24,12.19-1.24-27.73,22.98-61.22,17.54-85.48-7.32,0,0,15.22,.7,15.22,.7-14.28,13.68-39.64,18.87-53.56-.05-24.88-37.21-6.01-97.57,21.86-127.87h0Z"/>
  <path class="cls-14" d="M2401.2,2643.33l-22.92-1.4c2.42-39.77,34.64-71.85,62.43-95.35l14.82,17.53c-36.11,30.53-52.86,54.96-54.34,79.22Z"/>
  <path class="cls-14" d="M1750.52,3404.66c-5.41,0-10.92-.08-16.53-.25l.7-22.95c48.64,1.52,88.69-3.7,122.2-15.84,9.54-94.48,61.76-242.73,112.3-386.22l4.74-13.47c1.6-4.54,5.85-7.59,10.66-7.67l78.06-1.15c4.75,0,9.06,2.8,10.83,7.21l155.07,387.12c52.26,12.61,102.32,12.74,152.87,.45l5.42,22.3c-56.11,13.65-111.6,13.02-169.63-1.92-3.54-.91-6.44-3.46-7.8-6.85l-154.32-385.25-62.17,.92-2.09,5.92c-51.37,145.83-104.48,296.64-111.72,387.68-.35,4.35-3.13,8.13-7.18,9.75-33.94,13.57-73.79,20.21-121.42,20.21Z"/>
  <path class="cls-14" d="M2432.24,3360l-8.15-21.46c5.32-2.02,10.62-4.17,15.83-6.41-19.49-269.94-41.79-475.17-68.15-627.2l22.62-3.93c26.75,154.3,49.33,362.84,69.01,637.53,.34,4.79-2.32,9.28-6.69,11.26-7.96,3.63-16.19,7.06-24.47,10.21Z"/>
  <path class="cls-14" d="M1653.29,3397.43c-7.5-.97-15.05-1.99-22.6-3.1-4.82-.71-8.67-4.39-9.59-9.18-34.27-177.46-40.47-378.87-39.24-626.68l22.96,.12c-1.21,242.72,4.72,440.5,37.29,614.19,4.72,.65,9.44,1.28,14.14,1.89l-2.96,22.76Z"/>
  <path class="cls-14" d="M1596.24,2908.62l-5.32-22.33c55.5-13.21,91.47-60.02,109.97-143.13l22.41,4.99c-20.6,92.53-62.16,145.03-127.06,160.47Z"/>
  <path class="cls-14" d="M2399.53,2841.98c-58.56-16.22-104.48-59.58-136.5-128.91l20.84-9.63c29.06,62.92,70.03,102.08,121.79,116.41l-6.13,22.13Z"/>
  <path class="cls-14" d="M2076.6,2949.07c5.27-16.3,13.31-30.96,22.33-45.24,9.31-14.51,18.89-28.03,35.07-36.26-2.3,18.01-11.81,31.58-22.33,45.24-10.41,13.31-21.5,25.81-35.07,36.26h0Z"/>
  <path class="cls-14" d="M1949.76,2935.29c16.54,4.27,33.2,12.01,43.06,26.25,0,0-16.1,16.37-16.1,16.37-14.4-9.63-22.41-26.15-26.96-42.62h0Z"/>
  <path class="cls-14" d="M1979.03,2252.3c-1.28,0-2.58-.21-3.85-.66-5.97-2.13-9.09-8.69-6.97-14.66,7.9-22.18,4.78-49.52-9.79-86.02-2.35-5.89,.52-12.57,6.41-14.92,5.87-2.35,12.56,.51,14.92,6.4,10.55,26.43,23.08,65.78,10.1,102.23-1.67,4.7-6.1,7.63-10.82,7.63Z"/>
  <path class="cls-14" d="M2056.4,2263.02c-5.13,0-9.81-3.47-11.12-8.67-10.35-40.94-8.75-78.71,4.86-115.47,2.2-5.94,8.81-8.98,14.75-6.77,5.94,2.2,8.98,8.8,6.78,14.75-11.95,32.26-13.3,65.58-4.14,101.87,1.56,6.15-2.17,12.39-8.32,13.94-.94,.24-1.89,.35-2.82,.35Z"/>
  <circle class="cls-14" cx="1969.08" cy="2256.9" r="26.57"/>
  <circle class="cls-14" cx="2066.27" cy="2276.03" r="26.78"/>
  <path class="cls-14" d="M2767.68,2124.82c-2.35,0-4.72-.14-7.09-.42l-304.79-35.52,2.66-22.8,304.79,35.52c12.08,1.41,24.09-3.29,31.39-12.26,17.46-21.46,31.1-58.24,41.7-112.44,.05-.24,.1-.47,.16-.71,7.11-27.11,5.17-48.91-5.92-66.63-15.16-24.21-48.8-41.63-100-51.78l4.47-22.52c58.47,11.59,96.08,31.91,114.99,62.12,14.38,22.97,17.32,51.32,8.76,84.27-11.33,57.8-26.5,97.76-46.35,122.17-10.92,13.42-27.28,20.99-44.76,20.99Z"/>
  <path class="cls-14" d="M1654.1,3431.81c-11.75-25.25-14.09-45.49-7.15-61.86,5.63-13.29,17.13-23.02,34.19-28.93,21.39-7.43,44.69,1.22,55.4,20.54,9.73,17.54,12.13,37.92,7.33,62.27l-22.52-4.43c3.71-18.82,2.11-34.1-4.88-46.7-5.29-9.53-16.98-13.74-27.81-9.98-10.82,3.75-17.54,9.05-20.57,16.2-4.2,9.91-1.9,24.45,6.83,43.22l-20.82,9.69Z"/>
  <path class="cls-14" d="M1874.29,3612.93h-341.73c-6.51,0-12.84-2.69-17.37-7.38-4.54-4.7-6.9-10.87-6.67-17.37,1.6-43.96,15.39-95.1,107.3-103.33l37.48-58.7c.77-1.2,1.75-2.25,2.89-3.09,20.97-15.36,44.43-21.52,66.11-17.36,54.51,8.1,93.94,12.62,127.81,14.65,10.4,.62,19.39,7.06,23.47,16.79h0c16.94,40.45,24.96,90.18,24.52,152.03-.1,13.1-10.78,23.76-23.82,23.76Zm-202.83-172.55l-39.37,61.65c-1.96,3.07-5.27,5.03-8.9,5.28-73.84,4.99-90.08,36.27-91.73,81.71,0,.09-.01,.33,.25,.6,.16,.16,.43,.36,.84,.36h341.73c.48,0,.86-.42,.86-.97,.42-58.68-7.02-105.45-22.74-142.99h0c-.67-1.59-2.07-2.64-3.66-2.73-34.62-2.08-74.73-6.67-130.06-14.9-.17-.02-.35-.05-.52-.09-14.85-2.89-31.36,1.39-46.71,12.09Z"/>
  <path class="cls-14" d="M1846.47,3439.22c-8.09-16.84-10.57-36.07-7.8-60.53l22.81,2.58c-2.26,19.98-.45,35.23,5.68,48.01l-20.69,9.94Z"/>
  <path class="cls-14" d="M2440.47,3442.27c-1.5,0-3.02-.29-4.48-.91-37.16-15.77-102.46-8.96-177.7,.82-5.77,.78-11.2-2.94-12.61-8.6l-16.24-64.98,22.27-5.57,13.76,55.07c36.45-4.64,70.54-8.36,100.61-8.93-6.34-18.75-3.05-39.43,9.9-54.31,13.02-14.96,33.97-21.4,54.68-16.81,.44,.1,.87,.22,1.29,.37,17.23,6,28.47,15.8,33.42,29.1,6.56,17.65,1.67,40.22-14.96,69.01-2.11,3.65-5.95,5.74-9.94,5.74Zm-48.99-32.71c16.23,.88,30.88,3.09,43.65,7.08,9.11-17.86,12.13-31.97,8.73-41.11-2.43-6.54-8.59-11.51-18.8-15.19-12.28-2.48-24.39,1.15-31.76,9.61-9.08,10.42-9.62,26.73-1.82,39.61Z"/>
  <path class="cls-14" d="M2576.75,3614.31h-.26l-337.57-3.54c-13.19-.14-24.33-10.15-25.9-23.28-8.08-67.5,3.23-120.99,34.55-163.5l18.48,13.61c-27.7,37.59-37.59,85.73-30.24,147.16,.21,1.72,1.64,3.03,3.34,3.04l337.57,3.54h.03c1.1,0,1.83-.58,2.17-.93,.41-.43,.89-1.16,.84-2.23-2.46-51.2-31.98-77.65-92.9-83.22-3.22-.29-6.16-1.93-8.11-4.51l-47.45-62.75,18.31-13.85,44.43,58.76c85.94,9.77,106.6,61.95,108.64,104.46,.34,7.1-2.3,14.12-7.24,19.25-4.88,5.07-11.69,7.96-18.71,7.96Z"/>
  <path class="cls-14" d="M1118.57,1799.62l-7.8-4.84c8.36-13.46,13.35-33.55,14.81-59.69l9.17,.51c-1.58,28.09-6.87,49.03-16.19,64.02Z"/>
  <path class="cls-14" d="M1151.64,1806.73l-6.15-6.82c15.22-13.73,30.92-30.91,32.01-54.13l9.17,.43c-1.25,26.59-18.41,45.52-35.03,60.52Z"/>
  <path class="cls-14" d="M1221.49,1817.36l-8.48-3.54c9.38-22.48-.55-36.3-12.66-47.89l6.35-6.64c12.98,12.42,26.4,30.24,14.79,58.06Z"/>
  <path class="cls-14" d="M1247.48,1824.16l-5.34-7.47c18.48-13.21,24.52-26.43,19.02-41.61l8.63-3.13c6.93,19.11-.58,36.67-22.31,52.21Z"/>
  <path class="cls-14" d="M1300.17,1832.24l-7.12-5.79c20.52-25.25,27.38-45.07,21.59-62.37l8.71-2.92c6.88,20.57-.49,43.16-23.18,71.08Z"/>
  <path class="cls-14" d="M1453.11,1857.42l-4.18-8.17c26.79-13.71,37.68-44.5,34.25-96.89l9.16-.6c3.65,55.73-9.18,90.3-39.23,105.67Z"/>
  <rect class="cls-14" x="1430.06" y="1749.83" width="9.18" height="31.06"/>
  <rect class="cls-14" x="1383.28" y="1747.87" width="9.18" height="29.21"/>
  <path class="cls-14" d="M2727.36,2112.67l-4.67-7.91c63.67-37.6,84.85-118.42,62.94-240.2l9.04-1.63c22.66,125.95,.02,209.97-67.31,249.73Z"/>
  <path class="cls-14" d="M2747.7,2336.28c-45.01-13.92-74.82-35.27-88.62-63.44-12.98-26.51-12.1-59.78,2.61-98.86l8.59,3.23c-13.98,37.14-14.95,67.09-2.96,91.59,12.63,25.81,40.59,45.56,83.08,58.71l-2.71,8.77Z"/>
  <path class="cls-14" d="M1383.32,2309.27c-11.31-83.7-63.95-117.91-170.57-110.92l-.6-9.16c69.88-4.58,164.59,2.76,180.28,118.85l-9.1,1.23Z"/>
  <rect class="cls-14" x="1698.67" y="3385.6" width="9.18" height="366.65" transform="translate(-1903.81 5189.84) rotate(-88.69)"/>
  <rect class="cls-14" x="2222.62" y="3561.74" width="368.63" height="9.18"/>
  <path class="cls-14" d="M2406.64,3481.68c-1.34,0-2.66-.59-3.56-1.68l-22.5-27.55c-.98-1.21-1.29-2.83-.81-4.31,.48-1.48,1.67-2.62,3.17-3.03,19.64-5.31,41.95-7.01,68.22-5.19l-.63,9.16c-22.14-1.53-41.27-.48-58.23,3.2l15.55,19.04c19.44-9.52,39.18-13.27,58.77-11.16l-.99,9.13c-18.87-2.05-38,1.95-56.87,11.87-.68,.35-1.41,.52-2.13,.52Z"/>
  <path class="cls-14" d="M2443.35,3525.88c-1.27,0-2.49-.52-3.36-1.46l-18.21-19.52c-1.61-1.73-1.65-4.4-.08-6.18,10.16-11.48,26.9-19.78,52.69-26.09l2.19,8.92c-21.46,5.26-35.95,11.76-45.1,20.29l11.65,12.49c11.83-13.52,26.59-22.02,43.94-25.29l1.7,9.02c-17.03,3.21-30.7,11.73-41.8,26.05-.82,1.06-2.07,1.71-3.42,1.77-.07,0-.14,0-.21,0Z"/>
  <path class="cls-14" d="M1701.24,3483.98c-1.13,0-2.23-.42-3.08-1.19-9.85-8.91-26.63-15.11-52.81-19.54l1.53-9.05c24.95,4.22,42.17,10.18,53.54,18.6l14.21-19.03-56.22-11.21,1.8-9,63.35,12.63c1.55,.31,2.82,1.39,3.39,2.86,.56,1.47,.33,3.13-.61,4.39l-21.43,28.7c-.77,1.04-1.95,1.69-3.23,1.82-.15,.01-.3,.02-.44,.02Z"/>
  <path class="cls-14" d="M1666.8,3525.3c-1.02,0-2.02-.34-2.83-.97-12.69-9.93-27.22-18.07-43.2-24.2l3.29-8.57c15.26,5.85,29.29,13.46,41.77,22.65l8.02-11.14-41.01-23.09,4.51-8,45.48,25.6c1.14,.64,1.95,1.73,2.23,3.01,.28,1.27,0,2.61-.76,3.67l-13.78,19.13c-.73,1.01-1.84,1.68-3.08,1.86-.21,.03-.43,.04-.65,.04Z"/>
  <g>
    <path class="cls-2" d="M1042.4,1119.75c22.77-37.25,33.99-81.96,29.19-128.73-11.66-113.53-113.14-196.12-226.68-184.46-113.53,11.66-196.12,113.14-184.46,226.68,11.66,113.53,113.14,196.12,226.68,184.46,31.58-3.24,60.75-13.45,86.18-28.92l95.63,21.45-26.54-90.47Z"/>
    <g class="cls-4">
      <path class="cls-2" d="M848.97,846.09c106.06-10.89,201.58,60.47,223.2,162.46,.03-7.29-.29-14.64-1.05-22.05-11.66-113.53-113.14-196.12-226.68-184.46-113.53,11.66-196.12,113.14-184.46,226.68,.76,7.44,1.94,14.74,3.45,21.9,.4-104.3,79.45-193.64,185.54-204.53Z"/>
    </g>
    <path class="cls-14" d="M865.85,1236.96c-113.74,0-211.62-86.32-223.48-201.88-6.14-59.74,11.36-118.29,49.27-164.87,37.91-46.58,91.68-75.61,151.42-81.74,59.72-6.14,118.29,11.36,164.87,49.27,46.58,37.91,75.61,91.68,81.74,151.42,4.79,46.62-4.75,92.43-27.61,133.01l24.33,82.93c1.81,6.18,.22,12.85-4.18,17.55-4.4,4.7-10.96,6.71-17.24,5.31l-88.65-19.88c-26.93,15.2-56.27,24.51-87.33,27.7-7.77,.8-15.49,1.19-23.13,1.19Zm.52-413.34c-6.5,0-13.04,.33-19.6,1.01-50.08,5.14-95.16,29.48-126.94,68.53-31.77,39.05-46.44,88.13-41.3,138.22,10.62,103.38,103.4,178.85,206.74,168.24,28.13-2.89,54.58-11.76,78.59-26.37,4.02-2.44,8.84-3.23,13.42-2.21l65.53,14.7-17.85-60.87c-1.44-4.92-.74-10.22,1.93-14.6,21.66-35.44,30.86-76.03,26.61-117.4-5.14-50.08-29.48-95.16-68.53-126.94-33.93-27.61-75.45-42.31-118.61-42.31Z"/>
    <g class="cls-13">
      <path class="cls-14" d="M1043.56,1117.76c-56.6,47.88-134.58,68.84-212.02,49.57-85.88-21.37-149.15-86.77-171.91-166.13-.54,10.52-.3,21.22,.81,32.03,11.66,113.53,113.14,196.12,226.68,184.46,31.58-3.24,60.75-13.45,86.18-28.92l95.63,21.45-26.54-90.47c.4-.65,.77-1.33,1.16-1.98Z"/>
    </g>
    <path class="cls-18" d="M932.1,954.09h0c-17.88-17.88-46.88-14.68-64.76,3.2l-2.78,2.78-2.78-2.78c-17.88-17.88-46.88-21.09-64.76-3.2h0c-17.88,17.88-17.88,46.88,0,64.76l2.78,2.78,56.23,56.23c4.71,4.71,12.36,4.71,17.07,0l56.23-56.23,2.78-2.78c17.88-17.88,17.88-46.88,0-64.76Z"/>
  </g>
</svg>